<?xml version="1.0" encoding="UTF-8" standalone="no"?>
<svg
   version="1.1"
   width="1146px"
   height="818px"
   viewBox="-213 302 1146 818"
   id="svg166"
   sodipodi:docname="onlineSale.svg"
   inkscape:version="1.2.2 (b0a8486541, 2022-12-01, custom)"
   xmlns:inkscape="http://www.inkscape.org/namespaces/inkscape"
   xmlns:sodipodi="http://sodipodi.sourceforge.net/DTD/sodipodi-0.dtd"
   xmlns="http://www.w3.org/2000/svg"
   xmlns:svg="http://www.w3.org/2000/svg">
  <defs
     id="defs170" />
  <sodipodi:namedview
     id="namedview168"
     pagecolor="#ffffff"
     bordercolor="#666666"
     borderopacity="1.0"
     inkscape:showpageshadow="2"
     inkscape:pageopacity="0.0"
     inkscape:pagecheckerboard="0"
     inkscape:deskcolor="#d1d1d1"
     showgrid="false"
     inkscape:zoom="0.47284524"
     inkscape:cx="573.1262"
     inkscape:cy="409.2248"
     inkscape:window-width="1600"
     inkscape:window-height="792"
     inkscape:window-x="0"
     inkscape:window-y="27"
     inkscape:window-maximized="1"
     inkscape:current-layer="svg166" />
  <g
     id="g468"
     transform="matrix(1.1805899,0,0,1.1805899,-71.627412,-132.75086)">
    <g
       style="fill:#000000;fill-opacity:1;stroke-linejoin:miter"
       id="g31">
      <path
         d="M 693.60175,925.3352 429.635,925.3363 V 497.4671 l 263.9664,0.002 z m -152.52442,43.44556 c 0,-11.76316 9.44747,-21.30616 21.10303,-21.30616 11.65961,2.5e-4 21.10309,9.5432 21.10309,21.3065 -1.9e-4,11.7594 -9.44348,21.31814 -21.10315,21.31814 -11.65564,-0.0161 -21.10297,-9.55908 -21.10297,-21.31848 m 170.23517,19.3374 0.0358,10e-4 -1.7e-4,-512.7674 v -0.004 -0.10339 l -0.008,10e-4 c -0.0558,-11.70849 -9.55481,-21.18371 -21.28229,-21.18371 -0.0838,0 -0.15146,0.008 -0.22726,0.008 v -0.008 l -47.82236,9.1e-4 -139.51746,-10e-4 -69.31213,7.4e-4 c -11.71149,0.007 -21.2027,9.48218 -21.26648,21.18164 l -0.004,0.001 6e-5,512.86934 0.0319,6e-4 c -0.008,0.22204 -0.0319,0.4413 -0.0319,0.67284 7e-5,11.47217 9.64277,20.77587 21.54144,20.77627 0.17554,0 0.34693,-0.024 0.52235,-0.028 v 0.028 h 256.37685 v 0 c 11.57597,0 20.9952,-9.2998 20.9952,-20.77617 0.004,-0.22704 -0.0237,-0.45034 -0.0316,-0.66968 z"
         id="path29" />
    </g>
    <g
       style="fill:#00b6b9;fill-opacity:1;stroke-linejoin:miter"
       id="g35">
      <path
         d="M 703.64465,482.34967 702.60657,941.0929 419.5918,940.4525 420.62976,481.7088 Z"
         id="path33" />
    </g>
    <g
       style="fill:#3e3131;fill-opacity:1;stroke-linejoin:miter"
       id="g39">
      <path
         d="m 562.18036,946.0724 c 12.427,0 22.49158,10.1709 22.49174,22.70836 -1.6e-4,12.53334 -10.065,22.72119 -22.4918,22.72119 -12.4226,-0.0169 -22.4917,-10.18811 -22.4914,-22.72119 0,-12.53686 10.069,-22.70836 22.49146,-22.70836 z"
         id="path37" />
    </g>
    <g
       style="fill:#000000;fill-opacity:1;stroke-linejoin:miter"
       id="g43">
      <path
         d="m 334.17264,925.3353 -263.96685,0.001 9e-5,-427.8692 263.96632,0.002 z m -152.52446,43.4456 c 0,-11.7632 9.44745,-21.30617 21.10307,-21.30617 11.65958,2.7e-4 21.10306,9.54321 21.10306,21.30652 -1.8e-4,11.7594 -9.44348,21.31812 -21.10315,21.31812 -11.65562,-0.0161 -21.10298,-9.55907 -21.10298,-21.31847 m 170.23522,19.3374 0.0358,10e-4 -2.4e-4,-512.7675 v -0.004 -0.10339 l -0.008,10e-4 c -0.0558,-11.70849 -9.55481,-21.18371 -21.28228,-21.18371 -0.0838,0 -0.15144,0.008 -0.22724,0.008 v -0.008 l -47.82239,9.1e-4 -139.51744,-0.001 -69.31214,7.4e-4 c -11.711488,0.007 -21.2027,9.48224 -21.26645,21.1817 l -0.004,10e-4 V 988.1144 l 0.03192,6e-4 c -0.008,0.22204 -0.03192,0.4413 -0.03192,0.67284 9.2e-5,11.47216 9.642792,20.77586 21.541473,20.77626 0.175535,0 0.346895,-0.024 0.522339,-0.028 v 0.028 H 330.91975 v 0 c 11.57605,0 20.99523,-9.2998 20.99523,-20.77614 0.004,-0.22706 -0.0237,-0.45031 -0.0316,-0.66966 z"
         id="path41" />
    </g>
    <g
       style="fill:#00b6b9;fill-opacity:1;stroke-linejoin:miter"
       id="g47">
      <path
         d="M 344.21548,482.34967 343.17746,941.093 60.162605,940.4525 61.20063,481.7088 Z"
         id="path45" />
    </g>
    <g
       style="fill:#3e3131;fill-opacity:1;stroke-linejoin:miter"
       id="g51">
      <path
         d="m 202.75125,946.0725 c 12.427,0 22.49155,10.1709 22.49173,22.7084 -1.8e-4,12.5333 -10.065,22.7212 -22.49182,22.7212 -12.42259,-0.017 -22.49168,-10.18814 -22.49141,-22.7212 0,-12.5369 10.069,-22.7084 22.4915,-22.7084 z"
         id="path49" />
    </g>
    <g
       style="fill:#000000;fill-opacity:1;stroke-linejoin:miter"
       id="g55">
      <path
         d="m 187.30647,735.7476 -4.88827,-3.8658 q -6.47016,-13.8462 -10.55422,-27.3662 -2.57545,-8.993 -2.32308,-17.59995 0.17039,-4.29749 1.31283,-8.4621 l 1.41322,-4.12135 q 3.46544,-8.23076 9.8676,-15.155 3.14662,-3.4318 6.70119,-6.3552 1.6855,-1.8702 11.03764,-7.32273 7.28719,-3.85837 14.95038,-4.50467 7.44948,-0.4388 14.32204,1.95724 5.72793,1.83106 15.49069,7.07896 8.96539,0.911 12.76421,4.15597 3.29977,2.7204 4.12796,8.89633 1.01721,7.1339 -0.38013,22.53244 l -73.84206,50.13206"
         id="path53" />
    </g>
    <g
       style="fill:#000000;fill-opacity:1;stroke-linejoin:miter"
       id="g59">
      <path
         d="m 515.7922,674.2913 0.0877,-2.66593 q 0.3589,-12.03907 2.0764,-16.90693 1.8569,-4.70054 2.63275,-5.15564 1.13709,-1.40795 2.67645,-2.3309 3.1484,-1.77926 7.2312,-2.25247 2.1958,-0.35263 11.8902,-0.81563 l 3.26734,-0.5138 q 1.02066,-0.0313 8.99666,-3.2323 l 2.87205,-0.6862 q 3.44875,-0.5179 6.91975,-0.12304 16.64055,1.90979 27.2949,13.49954 1.9408,2.28543 3.48414,4.9373 l 1.43091,2.7302 q 1.32535,2.8149 2.17585,5.91456 1.7266,6.22684 1.24456,13.26604 -0.8595,10.5787 -7.01786,21.9599 -0.7692,1.8582 -6.7994,11.463 -3.6727,5.7709 -13.6986,19.4454 l -31.5888,-6.1324 -25.1762,-52.4007"
         id="path57" />
    </g>
    <g
       style="fill:#222b32;fill-opacity:1;stroke-linejoin:miter"
       id="g63">
      <path
         d="m 528.2368,944.05945 45.61977,5.17795 q 56.07239,-0.6899 75.43373,-7.8136 9.98265,-3.51755 14.76756,-11.0438 1.56329,-2.55834 2.45374,-5.71026 0.81506,-1.28024 1.24176,-10.66998 0.57584,-11.74986 -7.84056,-41.77076 l -8.5576,-26.9275 q -0.9035,-3.19335 -4.1253,-4.34087 l -4.6541,-15.28553 q 2.64094,-2.5812 2.5649,-7.05724 -0.1943,-3.83176 -2.2004,-11.58146 0.83955,-13.0468 0.3357,-16.47146 -0.71594,-6.18904 -1.8444,-7.87237 -2.6594,-4.90187 -7.3444,-7.4151 l -3.4506,-1.95937 -24.0922,-9.03233 q -13.561,-15.43714 -20.0967,-14.57441 l -10.1002,-15.63079 q -2.64065,9.45587 -5.8874,13.27963 l -3.49074,3.7994 q -14.61731,11.66663 -16.80776,14.79175 -5.12657,5.90491 -9.2504,14.09742 -16.38526,35.15453 -23.5929,65.06799 -5.46704,22.08684 -1.4121,59.57234 -13.19368,5.5723 -12.12806,12.68706 -0.17714,3.87804 6.00848,16.08588 l 18.45018,10.59741"
         id="path61" />
    </g>
    <g
       style="fill:#222b32;fill-opacity:1;stroke-linejoin:miter"
       id="g67">
      <path
         d="m 424.43646,942.02515 9.06378,-18.59155 c 12.97076,-27.34766 11.47968,-44.85816 16.86554,-69.6401 -2.67028,0.0169 -5.00244,0.21205 -6.37688,1.43337 -10.65333,9.46663 -16.99244,14.88823 -19.72126,15.4917 -1.90942,1.69037 -15.46509,6.77899 -40.90286,14.50323 -1.41724,0.43036 -5.46918,3.39374 -12.3794,9.2271 -1.55468,1.31245 -5.06811,2.718 -10.18078,4.68696 l -17.80588,-28.83196 39.99496,-29.63276 c 7.54026,-5.17204 14.35232,-9.1795 20.43612,-12.02274 l 12.47047,-10.78005 c 2.26391,-1.44205 5.13855,-2.31505 8.62396,-2.61885 6.72351,-9.4258 14.50347,-16.2828 23.33977,-20.57103 9.28828,-21.64124 17.57118,-33.17121 23.96474,-36.50717 4.40618,-2.2989 17.11956,-5.59684 39.24853,-8.0935 l 68.52887,1.35897 -25.09234,191.31396 -115.2264,-0.0332 z"
         id="path65" />
    </g>
    <g
       style="fill:#ffffff;fill-opacity:1;stroke-linejoin:miter"
       id="g71">
      <path
         d="m 513.05566,944.37305 -46.34722,-1.97085 q 14.47729,-59.61076 20.85083,-81.44975 4.8432,-16.76019 9.09363,-29.25842 14.53545,-41.47953 20.3831,-59.36583 -0.2635,-12.6557 2.5899,-16.3259 5.6395,-8.4032 15.62044,-11.79496 11.48646,-4.93904 40.94031,-11.82114 1.19825,0.1818 0.88045,1.4802 -0.6762,2.9338 -2.4974,6.43945 l -21.84686,39.35595 q -6.664,12.1934 -12.43314,24.6241 -4.7613,9.519 -10.88003,28.96843 -3.74262,11.24957 -8.8219,41.57141 l -7.53211,69.54731"
         id="path69" />
    </g>
    <g
       style="fill:#ff0000;fill-opacity:1;stroke-linejoin:miter"
       id="g75">
      <path
         d="m 529.2429,771.97675 -4.19694,-0.95472 -1.43186,15.53547 q -23.49014,51.4834 -28.99087,74.73126 -6.61517,23.69264 -7.35681,66.09088 l 13.01868,-0.95644 q -3.28156,-5.8694 -3.65387,-11.3169 -0.37037,-4.5534 1.53187,-11.633 l 8.2769,-27.7974 q 0.61206,-1.8989 4.4192,-16.0805 4.5337,-16.8026 17.38494,-70.5233 l 8.97686,-6.4037 -7.9781,-10.69165"
         id="path73" />
    </g>
    <g
       style="fill:#ffbda4;fill-opacity:1;stroke-linejoin:miter"
       id="g79">
      <path
         d="m 533.5393,767.43134 -4.71575,-0.39104 -8.7862,-15.7062 q -8.90675,0.32685 -12.55523,-0.73406 -4.03266,-1.06897 -6.04132,-4.1717 -1.93354,-3.08974 -1.38385,-6.91364 0.20525,-2.77636 3.52025,-9.70635 l -1.3327,-2.62012 2.1648,-2.19189 -0.24444,-3.51464 q -7.22576,-0.1668 -7.96363,-4.596 -0.18293,-2.6133 1.14942,-4.5486 1.10333,-2.1477 6.68475,-8.01294 -1.14758,-5.84003 -0.4547,-8.40626 0.4671,-2.62926 3.93444,-7.1803 -0.90839,-7.0592 2.19098,-13.63244 3.26908,-8.40296 8.61328,-12.64312 0.5374,5.97916 4.51385,9.29699 3.48845,2.64453 11.59845,5.54987 l 9.0941,6.1515 -2.1898,11.7043 8.3677,8.93424 -1.92013,12.06616 8.06976,1.86664 q 5.77222,-11.02214 11.89357,-10.96914 3.8938,-0.48014 7.8446,1.0659 4.0975,1.9571 4.31274,4.49327 0.552,4.72783 -6.76081,14.46368 l 1.06061,8.79415 -40.66474,31.55174"
         id="path77" />
    </g>
    <g
       style="fill:#ffbda4;fill-opacity:1;stroke-linejoin:miter"
       id="g83">
      <path
         d="m 519.3555,944.5045 -33.1956,-0.0741 q -4.83593,-6.9415 -5.5092,-11.50096 -0.3623,-3.69594 1.57775,-8.57914 -2.88311,-3.5976 -2.52673,-5.15316 0.0354,-1.59869 3.70203,-4.3092 -1.1756,-2.60687 -0.38165,-3.80924 0.43505,-0.6927 1.7519,-1.12435 0.82475,-0.37195 4.49932,-0.7215 2.21356,-0.16605 4.7503,-0.23645 l 19.13605,-0.4712 6.19583,35.9793"
         id="path81" />
    </g>
    <g
       style="fill:#ffffff;fill-opacity:1;stroke-linejoin:miter"
       id="g87">
      <path
         d="m 510.13147,907.11017 -0.48267,1.03743 q -3.34674,6.5109 -3.38495,13.5666 -0.19641,6.09024 3.8877,23.2774 l 23.78345,0.21604 -7.2554,-39.29424 -16.54813,1.19677"
         id="path85" />
    </g>
    <g
       style="fill:#988888;fill-opacity:1;stroke-linejoin:miter"
       id="g91">
      <path
         d="m 169.21172,939.7163 0.57125,-8.9792 0.57125,-8.97904 q -0.57125,8.97904 -1.1425,17.95824"
         id="path89" />
    </g>
    <g
       style="fill:#ffffff;fill-opacity:1;stroke-linejoin:miter"
       id="g95">
      <path
         d="m 146.65598,941.70776 1.19272,-5.57861 q -8.5209,-2.65161 -1.90993,-14.02005 l -26.71355,-47.96603 q -4.38409,-8.35087 -7.02896,-18.21491 -5.39171,-21.35916 -0.50192,-59.57346 2.58113,-12.9093 8.81715,-17.3297 2.81902,-2.8197 12.9498,-8.4279 7.12894,-4.07275 42.47339,-21.53387 l 6.56209,-13.60873 86.12973,13.2887 q 13.0351,2.55825 20.40667,7.4781 10.25165,5.03987 27.00299,30.2526 l 27.70554,44.48124 q 4.49432,7.84796 3.2467,14.28223 -1.09405,5.62939 -6.93914,13.45947 l -34.46149,3.3031 q -8.63269,-8.66634 -10.84657,-32.9643 1.998,36.33426 -2.81176,56.99706 l -0.29382,55.0138 -144.97964,0.66126"
         id="path93" />
    </g>
    <g
       style="fill:#ffbda4;fill-opacity:1;stroke-linejoin:miter"
       id="g99">
      <path
         d="m 184.82903,737.1754 -0.20424,-3.2346 -0.97779,-11.7839 q -0.26616,-2.5475 -1.48379,-8.6258 -0.2085,-1.9426 -0.15007,-2.3631 0.35965,-6.0598 3.57669,-8.7777 2.44815,-1.79167 6.1089,0.70455 4.05972,2.64715 11.95828,11.33965 l 8.91002,0.69654 1.68013,-11.38849 11.26234,-5.08345 q -4.3005,-9.0799 -4.63818,-13.08024 -0.0529,-3.85541 0.56006,-4.30933 0.58142,-1.23559 1.82221,-2.13573 4.80627,-4.0748 32.27462,-1.95466 l 5.19362,-2.40994 q 7.11787,15.8992 6.98907,21.73934 0.52924,6.21656 -5.78765,14.43066 7.5003,13.2371 8.35718,18.846 0.35767,3.5639 -1.98706,4.91225 -1.79541,1.25335 -6.88379,1.98705 -0.974,2.1538 -1.43506,4.70875 1.24676,1.97655 0.8302,3.36261 -0.23108,1.315 -2.77282,4.74064 0.90362,8.1131 -2.25955,11.1518 -2.31173,3.1614 -19.05319,2.03224 l -3.83804,3.74042 -7.03681,1.62659 q -23.37828,-10.18799 -29.73869,-15.33825 -7.31137,-5.1404 -11.27659,-15.5339"
         id="path97" />
    </g>
    <g
       style="fill:#ffbda4;fill-opacity:1;stroke-linejoin:miter"
       id="g103">
      <path
         d="m 278.27307,881.62933 20.88245,-3.54113 13.26678,-5.23706 14.36615,0.45246 3.39685,-2.6799 7.10193,0.5898 3.73511,3.01917 6.05102,-2.60657 q 7.34937,6.64825 8.84724,9.4438 3.29153,4.685 0.39,12.83147 5.2365,6.22863 3.35618,9.11529 -2.87208,4.66124 -7.08206,1.31427 3.89544,3.18847 0.77832,6.72027 -2.37654,2.9478 -3.92011,3.0869 -1.5968,0.361 -4.00165,-1.2667 3.00892,2.07403 2.44042,3.3228 -0.19847,1.2108 -4.74108,4.0555 0.32782,3.0054 -0.49578,4.0625 -0.64754,1.13665 -3.91779,2.519 -3.32263,4.37217 -4.41725,5.1792 -1.90447,1.5472 -2.75432,1.5371 -2.15704,0.4535 -5.85962,-2.2262 -3.30621,0.6445 -4.6701,-0.0497 -1.5788,-0.6976 -3.25641,-4.109 -5.57141,3.68554 -7.61145,1.99853 -1.50275,-0.82423 -3.469,-3.06483 -3.2893,-1.71825 -4.57476,-2.97856 -1.43738,-1.54999 -1.11902,-3.82648 -3.48249,0.009 -5.23842,-1.12956 -1.5087,-0.8837 -3.5534,-4.7271 l -13.52398,0.1026 -0.40625,-31.90787"
         id="path101" />
    </g>
    <g
       style="fill:#ffbda4;fill-opacity:1;stroke-linejoin:miter"
       id="g107">
      <path
         d="m 337.95288,854.6741 -3.22412,17.0861 -20.59052,5.1331 -9.15441,-0.2457 -1.73683,-4.9856 -2.63567,-1.2121 -0.47876,-6.94807 -3.31763,-0.44503 -0.37616,-5.6817 12.35412,-3.56315 q -3.0564,-5.01392 -3.1909,-6.40395 -0.1462,-1.18034 0.002,-1.3021 0.23137,-0.7164 1.02385,-1.11536 0.46039,-0.35388 2.73572,-0.67984 0.69598,-0.1345 7.82959,-0.4866 1.93354,-0.12946 3.72577,-0.4108 1.51947,-0.21976 5.52691,-1.36716 1.29529,-0.26064 1.5384,-0.24494 2.0816,-0.22344 4.21008,1.26814 2.32825,1.59991 6.11365,5.9602 l -0.35529,5.64456"
         id="path105" />
    </g>
    <g
       style="fill:#ffc4a8;fill-opacity:1;stroke-linejoin:miter"
       id="g111">
      <path
         d="m 332.2074,811.61115 v 0 h -6e-5 6e-5"
         id="path109" />
    </g>
    <g
       style="fill:#000000;fill-opacity:1;stroke-linejoin:miter"
       id="g115">
      <path
         d="m 219.72197,777.12006 4.76373,-3.15296 4.7638,-3.15277 q 5.01956,0.19122 10.03909,0.38233 l -3.76282,18.40684 q -7.90197,-6.24174 -15.8038,-12.48344"
         id="path113" />
    </g>
    <g
       style="fill:#000000;fill-opacity:1;stroke-linejoin:miter"
       id="g119">
      <path
         d="m 229.81993,781.6955 0.0276,1.3956 q -0.029,7.8409 2.23196,26.6771 1.8472,15.7878 10.02311,73.70586 l 17.41017,-1.80886 q -9.54552,-48.5847 -12.69826,-62.68864 -2.91064,-13.7832 -6.35456,-25.73896 -1.87148,-6.3434 -4.608,-13.2352 l -6.03207,1.6931"
         id="path117" />
    </g>
    <g
       style="fill:#000000;fill-opacity:1;stroke-linejoin:miter"
       id="g123">
      <path
         d="m 244.1205,775.2332 v 0 0 0"
         id="path121" />
    </g>
    <g
       style="fill:#000000;fill-opacity:1;stroke-linejoin:miter"
       id="g127">
      <path
         d="m 259.80542,926.13226 v 3.4e-4 l 1.31403,15.301 q -6.24505,0.0703 -12.49007,0.1406 -0.31228,-6.14146 -0.6246,-12.2833 l 11.80064,-3.15864"
         id="path125" />
    </g>
    <g
       style="fill:#ffffff;fill-opacity:1;stroke-linejoin:miter"
       id="g131">
      <path
         d="m 537.1948,668.71906 v 2.4e-4 10e-5 -3.4e-4"
         id="path129" />
    </g>
    <g
       style="fill:#ff0000;fill-opacity:1;stroke-linejoin:miter"
       id="g135">
      <path
         d="m 521.05054,752.19275 v 0 q 64.62622,-23.82805 0,0"
         id="path133" />
    </g>
    <g
       style="fill:#ff0000;fill-opacity:0.0941176;stroke-linejoin:miter"
       id="g139">
      <path
         d="m 520.33295,751.3779 1.66065,-0.2068 q 11.0722,-1.31734 15.7024,-2.52767 4.332,-1.0542 7.0328,-3.74933 l -11.321,22.4341 -4.5012,-0.1076 -8.57365,-15.8427"
         id="path137" />
    </g>
    <g
       style="fill:#ff0000;fill-opacity:0.0941176;stroke-linejoin:miter"
       id="g143">
      <path
         d="m 237.1899,762.20294 -15.19681,-3.8612 2.93225,9.83282 8.58813,-0.42876 3.67643,-5.54286"
         id="path141" />
    </g>
    <g
       style="fill:#222b32;fill-opacity:1;stroke-linejoin:miter"
       id="g147">
      <path
         d="m 459.8778,647.05255 7e-5,1.5e-4 1.3e-4,3.4e-4 -1.3e-4,-3.4e-4 -7e-5,-1.5e-4 7e-5,1.5e-4 1.3e-4,3.4e-4 q -1.3e-4,-3.4e-4 -2e-4,-4.9e-4"
         id="path145" />
    </g>
    <g
       style="fill:#222b32;fill-opacity:1;stroke-linejoin:miter"
       id="g151">
      <path
         d="m 459.8778,647.05255 7e-5,1.5e-4 1.3e-4,3.4e-4 -1.3e-4,-3.4e-4 -7e-5,-1.5e-4 7e-5,1.5e-4 1.3e-4,3.4e-4 q -1.3e-4,-3.4e-4 -2e-4,-4.9e-4"
         id="path149" />
    </g>
    <g
       style="fill:#000000;fill-opacity:0.439216;stroke-linejoin:miter"
       id="g155">
      <path
         d="m 810.9652,1007.7349 -3.78185,1.1411 q 0.20915,0.4258 -29.43275,2.1456 -13.64684,0.6641 -32.4082,1.2599 -37.5228,1.1918 -95.5038,2.1107 -58.38224,0.9184 -125.9795,1.3513 -86.51236,0.4351 -106.57925,0.3766 -37.25415,0.035 -76.81215,-0.052 -20.97618,0 -105.69977,-0.5976 -32.71359,-0.2769 -62.06766,-0.6578 -58.70809,-0.7617 -103.977965,-1.9387 -101.071915,-2.8476 -83.945274,-5.9182 7.527784,-1.5291 37.268988,-2.8208 14.870601,-0.646 35.294553,-1.2326 7.070198,-0.337 73.108738,-1.6131 109.75076,-1.8837 266.23399,-1.9639 78.24163,0.04 144.8001,0.531 80.64245,0.7124 93.26605,0.9901 28.89801,0.4147 54.87531,0.9419 60.0841,1.3703 65.43694,1.7155 17.6473,0.6162 29.7412,1.2917 24.1878,1.3512 26.1623,2.9395"
         id="path153" />
    </g>
    <g
       style="fill:#000000;fill-opacity:0.109804;stroke-linejoin:miter"
       id="g159">
      <path
         d="m 598.77313,859.987 8.32497,36.9568 -79.07015,6.0493 66.10028,-13.90204 4.6449,-29.10406"
         id="path157" />
    </g>
    <g
       style="fill:#000000;fill-opacity:0.105882;stroke-linejoin:miter"
       id="g163">
      <path
         d="m 164.45117,852.1626 10.40355,16.6116 10.40355,16.6116 86.96896,-2.10565 q -41.3804,-4.88685 -82.76078,-9.77365 -12.50765,-10.67197 -25.01528,-21.3439"
         id="path161" />
    </g>
  </g>
</svg>
